<?xml version="1.0" encoding="UTF-8"?>
<svg version="1.1" xmlns="http://www.w3.org/2000/svg" width="1620" height="2160">
<path d="M0 0 C1.0194873 0.01788574 2.03897461 0.03577148 3.08935547 0.05419922 C85.95468957 1.6813385 169.15491835 17.56553933 337 93 C338.4245752 93.83700439 338.4245752 93.83700439 339.87792969 94.69091797 C354.31786175 103.22581879 368.26083085 112.38202127 382 122 C383.04220703 122.72727295 383.04220703 122.72727295 384.10546875 123.46923828 C406.59409417 139.2010125 427.98320258 156.65745028 448.1015625 175.3203125 C449.95866933 177.03726033 451.82750769 178.74165675 453.7109375 180.4296875 C460.44454257 186.48427357 466.89980589 192.79405797 473.3125 199.1875 C474.58480469 200.45291626 474.58480469 200.45291626 475.8828125 201.74389648 C480.23232452 206.10411105 484.43283076 210.53104782 488.44702148 215.2019043 C490.69184887 217.80104809 493.03416721 220.29944378 495.375 222.8125 C499.61310701 227.40559375 503.65600193 232.11270222 507.57421875 236.984375 C509.35359865 239.19642216 511.14630553 241.39206839 512.95703125 243.578125 C538.44564396 274.44923174 560.45527507 308.21054798 579.56298828 343.36132812 C580.59326241 345.25313968 581.62869537 347.14214526 582.66748047 349.02929688 C618.75090387 414.62839207 644.03144892 486.07042292 638.63305664 845.9140625 C622.36656081 901.77303677 599.94014238 956.37791389 569.70605469 1006.18652344 C567.94743171 1009.08669104 566.21087759 1011.99930349 564.4765625 1014.9140625 C557.09180473 1027.26271314 549.31025596 1039.25537776 541 1051 C540.47051758 1051.75087891 539.94103516 1052.50175781 539.39550781 1053.27539062 C528.72548323 1068.36261079 517.54838297 1083.05103096 505.5 1097.06640625 C503.17375425 1099.79611025 500.92573847 1102.57308751 498.6875 1105.375 C493.9372102 1111.21691833 488.79742915 1116.66366983 483.625 1122.12890625 C480.95761524 1124.9516942 478.36416523 1127.83071532 475.78515625 1130.734375 C471.005738 1136.06222618 466.00375923 1141.14821074 460.93383789 1146.1965332 C459.43193075 1147.69304925 457.93548938 1149.194883 456.43945312 1150.69726562 C451.67664868 1155.46335764 446.86231956 1160.11956974 441.7409668 1164.50415039 C439.15638252 1166.72484144 436.68093407 1169.05244463 434.1875 1171.375 C429.61702095 1175.59274087 424.9306113 1179.6095264 420.08203125 1183.5078125 C417.76835882 1185.37869084 415.47813421 1187.26731879 413.19921875 1189.1796875 C402.77838213 1197.90321894 392.04596797 1206.08522447 381 1214 C380.18096191 1214.58813477 379.36192383 1215.17626953 378.51806641 1215.78222656 C307.39167323 1266.68409325 226.61209388 1302.4571977 -116.1565094 1328.00624084 C-201.25023497 1313.6732518 -282.48468764 1284.28452831 -386.19140625 1219.1015625 C-388.47089385 1217.39590974 -390.76832924 1215.73312484 -393.08984375 1214.0859375 C-402.77396647 1207.20244593 -412.11784707 1200.02711023 -421.26025391 1192.43994141 C-423.70011101 1190.4205368 -426.16419564 1188.43129039 -428.625 1186.4375 C-446.53293933 1171.73217277 -463.16491536 1155.92222288 -479.5625 1139.5625 C-480.22306396 1138.90461487 -480.88362793 1138.24672974 -481.56420898 1137.56890869 C-488.26153505 1130.89217635 -494.9117072 1124.24549433 -501 1117 C-502.02112131 1115.83130556 -503.04456636 1114.6646374 -504.0703125 1113.5 C-567.95858446 1040.44190633 -615.26935003 954.18758917 -671.75 721.0625 C-671.80925659 720.39345642 -671.86851318 719.72441284 -671.92956543 719.03509521 C-673.57063917 700.13932 -674.20847229 681.27533245 -674.1875 662.3125 C-674.18689575 661.29119995 -674.1862915 660.2698999 -674.18566895 659.21765137 C-674.04496978 570.93064267 -656.10915926 482.83472931 -603 365 C-602.45843262 363.91428711 -601.91686523 362.82857422 -601.35888672 361.70996094 C-581.55252988 322.19911217 -556.51337429 284.72521763 -528.37207031 250.671875 C-526.54995637 248.45161943 -524.77513136 246.19540768 -523 243.9375 C-514.33864356 233.09260832 -505.02014393 222.78971385 -495.54345703 212.65673828 C-493.96725919 210.9648562 -492.40266269 209.26283562 -490.83984375 207.55859375 C-483.92664481 200.04633965 -476.83305959 192.72993836 -469.625 185.5 C-468.79291016 184.66331787 -467.96082031 183.82663574 -467.10351562 182.96459961 C-462.7861883 178.65807424 -458.39744718 174.50395338 -453.7734375 170.52832031 C-451.36036379 168.44877166 -449.02722286 166.28642361 -446.6875 164.125 C-442.17224395 160.00778305 -437.53772215 156.09238415 -432.78125 152.2578125 C-430.00499941 150.00405851 -427.28552236 147.69262858 -424.5625 145.375 C-410.67547101 133.79048359 -395.87639035 123.26832863 -381 113 C-380.11562256 112.38511719 -380.11562256 112.38511719 -379.21337891 111.7578125 C-361.26009243 99.31806008 -342.22457932 88.34359347 -323 78 C-322.17483887 77.55124512 -321.34967773 77.10249023 -320.49951172 76.64013672 C-249.63417316 38.2125084 -169.80101174 13.8964338 0 0 Z M-69 113 C-69.69452271 113.08485657 -70.38904541 113.16971313 -71.10461426 113.25714111 C-147.30246942 122.64080218 -222.13097107 146.45854525 -291 187 C-291.82064941 187.48597656 -292.64129883 187.97195313 -293.48681641 188.47265625 C-334.71742445 213.02205094 -372.03170773 243.04468339 -406 276.875 C-407.18384277 278.0518335 -407.18384277 278.0518335 -408.39160156 279.25244141 C-412.57155262 283.44394911 -416.58809502 287.71809273 -420.44970703 292.20458984 C-422.55756299 294.64571941 -424.74806396 297.00705753 -426.9375 299.375 C-431.52815664 304.41990453 -435.80986134 309.62076793 -440 315 C-441.06210825 316.34405966 -442.12464469 317.68778102 -443.1875 319.03125 C-451.14047241 329.12319074 -458.72372048 339.41085785 -466 350 C-466.41137207 350.59248535 -466.82274414 351.1849707 -467.24658203 351.79541016 C-506.36883306 408.24848265 -533.69176905 472.44554715 -550 539 C-550.27005859 540.07846191 -550.54011719 541.15692383 -550.81835938 542.26806641 C-571.76205815 626.70220019 -569.6320892 716.49649138 -486.5625 951.75 C-471.44408332 976.74671729 -454.64953324 1000.52145631 -436 1023 C-431.92807306 1019.82191068 -428.58713788 1016.48724177 -425.2421875 1012.5625 C-422.27979807 1009.17691208 -419.20357093 1005.90479004 -416.125 1002.625 C-411.44898204 997.63675775 -406.82288393 992.61300351 -402.265625 987.515625 C-399.0699394 983.96731202 -395.82624735 980.46422274 -392.58374023 976.95874023 C-389.19297728 973.29289082 -385.81040923 969.61978393 -382.4375 965.9375 C-381.98777832 965.44652832 -381.53805664 964.95555664 -381.07470703 964.44970703 C-380.16937398 963.46115485 -379.26410037 962.47254823 -378.35888672 961.48388672 C-376.07357504 958.98835593 -373.7867042 956.49425473 -371.5 954 C-370.58332596 953.00000675 -369.6666593 952.00000676 -368.75 951 C-308.25 885 -308.25 885 -306.87280273 883.49804688 C-305.96286957 882.50509829 -305.05351992 881.51161465 -304.14477539 880.51757812 C-301.75477295 877.90484068 -299.35318665 875.30413123 -296.93359375 872.71875 C-296.43214844 872.17992187 -295.93070313 871.64109375 -295.4140625 871.0859375 C-294.01732651 869.58573959 -292.6162153 868.08961863 -291.21484375 866.59375 C-289.32191495 864.37698681 -288.21687895 862.59582451 -287 860 C-287.8504187 860.08302368 -287.8504187 860.08302368 -288.71801758 860.16772461 C-291.41578506 860.42857123 -294.11412622 860.68300455 -296.8125 860.9375 C-297.70259766 861.02451172 -298.59269531 861.11152344 -299.50976562 861.20117188 C-356.10106342 866.48824814 -413.16367397 863.59974418 -470 864 C-470 738.27 -470 612.54 -470 483 C-295.62003006 484.5032756 -295.62003006 484.5032756 -271 509 C-270.30003906 509.66515625 -269.60007812 510.3303125 -268.87890625 511.015625 C-247.67871383 532.67040244 -247.004996 568.19566026 -246.99951172 596.52197266 C-247.16516196 610.08494944 -248.51547645 626.86406284 -257 638 C-257.433125 638.59554687 -257.86625 639.19109375 -258.3125 639.8046875 C-267.267715 650.29908007 -283.20824814 654.46185587 -296 658 C-292.4962573 659.93099037 -288.87858477 661.01424414 -285.0625 662.1875 C-270.55490028 666.89649515 -256.86042094 674.34586685 -249.30859375 688.14453125 C-239.79366315 708.90696191 -239.82219615 731.33105738 -239.86962891 753.74121094 C-239.87496639 756.73117196 -239.86966375 759.72098115 -239.86328125 762.7109375 C-239.85753752 778.86171894 -240.49115191 794.91632142 -242 811 C-235.85911371 806.08729097 -230.69258917 800.43928832 -225.45263672 794.60986328 C-223.09160228 791.99328159 -220.70024172 789.40468895 -218.3125 786.8125 C-217.03319575 785.4217789 -215.75467817 784.0300677 -214.5005908 782.61656517 C-213 781 -213 781 -211.01030779 779.15403849 C-205.85045542 774.07170771 -204.07981829 770.50898339 -203.96734953 763.27423805 C-203.99065226 762.17596957 -204.01395499 761.07770108 -204.03796387 759.94615173 C-204.02771077 758.16439705 -204.02771077 758.16439705 -204.01725054 756.34664732 C-204.00639812 753.07096942 -204.03120745 749.79785995 -204.07147503 746.52248538 C-204.10616702 742.98273724 -204.09432172 739.44309918 -204.08825684 735.90322876 C-204.08407096 729.77746975 -204.10907511 723.65239475 -204.15415955 717.52680779 C-204.21929981 708.67046624 -204.24002357 699.81445394 -204.25006348 690.9578988 C-204.2675533 676.58738653 -204.32074011 662.21723846 -204.39648438 647.84692383 C-204.46996662 633.89121314 -204.52656934 619.93560153 -204.56054688 605.97973633 C-204.56264866 605.11885912 -204.56475045 604.25798191 -204.56691593 603.37101751 C-204.57735657 599.05205725 -204.58746615 594.73309629 -204.59741116 590.41413486 C-204.68028519 554.60909971 -204.82773282 518.80473854 -205 483 C-172 483 -139 483 -105 483 C-105 542.07 -105 601.14 -105 662 C-103.35 660.35 -101.7 658.7 -100 657 C-98.90558594 655.92298828 -98.90558594 655.92298828 -97.7890625 654.82421875 C-93.73146763 650.81789313 -89.84865727 646.74814367 -86.13671875 642.421875 C-83.19979251 639.09300065 -80.16153759 635.86290587 -77.125 632.625 C-72.44922377 627.63652627 -67.82288992 622.61301021 -63.265625 617.515625 C-60.57620677 614.52944338 -57.85361573 611.57533471 -55.125 608.625 C-54.61928467 608.07803467 -54.11356934 607.53106934 -53.5925293 606.9675293 C-52.56935908 605.86098121 -51.54616569 604.75445454 -50.52294922 603.64794922 C-48.07397652 600.99797075 -45.62908147 598.34428907 -43.1875 595.6875 C-41.94033203 594.33205078 -41.94033203 594.33205078 -40.66796875 592.94921875 C-39.78753906 591.97597656 -38.90710938 591.00273438 -38 590 C-37.39325439 589.42838135 -36.78650879 588.8567627 -36.16137695 588.26782227 C-30.60481612 582.71977832 -29.9758053 578.23723747 -29.8125 570.5625 C-29.69969588 568.42264989 -29.57724033 566.28328751 -29.4453125 564.14453125 C-29.38118164 563.09990723 -29.31705078 562.0552832 -29.25097656 560.97900391 C-27.34969611 538.41147079 -16.00640681 516.10894301 1.0703125 501.23828125 C17.60891471 487.61041148 37.32540462 480.24184366 58.47680664 477.73144531 C65.35604797 476.73886455 68.65000394 474.33619776 73 469 C74.01931472 467.83200629 75.03997231 466.66518193 76.0625 465.5 C76.63355469 464.83742188 77.20460938 464.17484375 77.79296875 463.4921875 C80.75797695 460.14408974 83.81610858 456.88722462 86.875 453.625 C91.5507359 448.63648743 96.17710902 443.6130114 100.734375 438.515625 C103.9300606 434.96731202 107.17375265 431.46422274 110.41625977 427.95874023 C113.80702272 424.29289082 117.18959077 420.61978393 120.5625 416.9375 C121.23708252 416.20104248 121.23708252 416.20104248 121.92529297 415.44970703 C122.83062602 414.46115485 123.73589963 413.47254823 124.64111328 412.48388672 C126.92642496 409.98835593 129.2132958 407.49425473 131.5 405 C132.41667404 404.00000675 133.3333407 403.00000676 134.25 402 C172.75 360 172.75 360 174.12548828 358.49951172 C175.04058633 357.50119339 175.95562555 356.50282114 176.87060547 355.50439453 C179.18578852 352.9782158 181.5020401 350.45303168 183.8203125 347.9296875 C188.04766751 343.32650235 192.26526083 338.71586224 196.4375 334.0625 C200.89643915 329.09487617 205.42438331 324.19316748 209.95703125 319.29296875 C212.83394762 316.18217159 215.70049617 313.06201655 218.5625 309.9375 C219.23708252 309.20104248 219.23708252 309.20104248 219.92529297 308.44970703 C220.83062602 307.46115485 221.73589963 306.47254823 222.64111328 305.48388672 C224.92642496 302.98835593 227.2132958 300.49425473 229.5 298 C230.41667404 297.00000675 231.3333407 296.00000676 232.25 295 C258.83333333 266 285.41666667 237 312 208 C309.36319105 205.22590791 306.75957198 203.02511512 303.53515625 200.96875 C302.66383057 200.41171387 301.79250488 199.85467773 300.89477539 199.28076172 C299.49279907 198.39928467 299.49279907 198.39928467 298.0625 197.5 C297.08466553 196.8827002 296.10683105 196.26540039 295.09936523 195.62939453 C214.59648067 145.18808234 120.36442654 113.38169284 -2.75 109.75 C-4.03656494 109.74932526 -5.32312988 109.74865051 -6.64868164 109.74795532 C-27.58170262 109.76534209 -48.22329675 110.42355963 -69 113 Z M407.64453125 298.125 C406.69533704 299.07819925 405.75155054 300.03680608 404.8125 301 C403.89082031 301.928125 402.96914062 302.85625 402.01953125 303.8125 C399.17606087 306.76257693 396.49873749 309.84419456 393.81420898 312.93847656 C390.83226109 316.32692603 387.72670203 319.59649412 384.625 322.875 C379.80607718 327.99043571 375.04287635 333.14310466 370.36328125 338.38671875 C366.72357784 342.41144864 363.00723881 346.363889 359.29931641 350.32568359 C353.82390288 356.17901728 348.40583347 362.08237164 343 368 C334.85169546 376.90518624 326.671256 385.7803042 318.47949219 394.64550781 C313.14302505 400.42124684 307.81064282 406.20049542 302.5 412 C296.18064701 418.90106977 289.8299052 425.7730313 283.47949219 432.64550781 C278.14302505 438.42124684 272.81064282 444.20049542 267.5 450 C261.18064701 456.90106977 254.8299052 463.7730313 248.47949219 470.64550781 C243.14302505 476.42124684 237.81064282 482.20049542 232.5 488 C226.18064701 494.90106977 219.8299052 501.7730313 213.47949219 508.64550781 C211.96530773 510.28433254 210.45134387 511.92336066 208.9375 513.5625 C208.20104248 514.35974487 208.20104248 514.35974487 207.44970703 515.1730957 C204.92947372 517.90314072 202.41412502 520.63750121 199.90625 523.37890625 C199.40746338 523.92409912 198.90867676 524.46929199 198.39477539 525.03100586 C197.02157832 526.53303361 195.6494268 528.03601704 194.27734375 529.5390625 C192 532 192 532 190.18359375 533.65234375 C188.66392671 535.0695205 188.66392671 535.0695205 189.125 537.9375 C189.53864268 540.13753358 190.073987 542.26515571 190.67578125 544.421875 C198.16859056 571.62653648 196.1625059 601.72471735 196.16725707 629.70627952 C196.16797934 632.10945909 196.17013524 634.51263332 196.17275429 636.91581154 C196.18194641 645.37462336 196.18609733 653.83341968 196.18530273 662.29223633 C196.18470499 670.05482699 196.19521314 677.81734749 196.2110464 685.57992047 C196.22432767 692.34356264 196.22947815 699.10718248 196.22884732 705.87083751 C196.22859808 709.86624027 196.23111615 713.86158061 196.24202538 717.85696983 C196.28493429 734.83922864 196.01873561 751.77434921 195.1730957 768.73754883 C195.12117492 769.87285036 195.12117492 769.87285036 195.06820524 771.03108728 C193.77462711 798.54643673 186.82194914 822.11039915 167 842 C166.26523437 842.75796875 165.53046875 843.5159375 164.7734375 844.296875 C142.48213658 865.91720031 109.37771933 871.39104412 79.52246094 871.234375 C48.19917797 870.73436915 17.75356542 862.15741273 -5.17578125 839.88671875 C-22.3291517 821.6675078 -27.81647093 798.97293857 -31 775 C-32.11075387 776.11075387 -33.21511801 777.22817551 -34.30006409 778.364151 C-36 780 -36 780 -38.23692322 781.66014099 C-42.30270129 784.96580107 -44.67649007 787.48804046 -45.79251099 792.70388794 C-46.15564737 797.23241784 -46.01377097 801.74929863 -45.87890625 806.28515625 C-45.86209424 807.95377653 -45.84929531 809.62244162 -45.84031677 811.29112244 C-45.80615381 815.6570672 -45.71793289 820.02026387 -45.61798096 824.38513184 C-45.52546994 828.8494754 -45.48471515 833.31426855 -45.43945312 837.77929688 C-45.34328658 846.52078444 -45.18993963 855.26004923 -45 864 C-45.84445175 863.97779388 -46.6889035 863.95558777 -47.5589447 863.93270874 C-55.54664385 863.73170842 -63.53348512 863.57978001 -71.523139 863.48187828 C-75.63021803 863.42984933 -79.73519522 863.35938405 -83.84106445 863.24560547 C-87.80943231 863.136335 -91.77578946 863.07703646 -95.74554634 863.05122757 C-97.25398979 863.0328562 -98.76233223 862.99697606 -100.26991081 862.94269943 C-109.06965051 862.55264804 -109.06965051 862.55264804 -116.86257935 866.15545654 C-119.13507726 868.665933 -121.06987329 871.22227504 -123 874 C-124.18558573 875.32282914 -125.38985554 876.62957125 -126.625 877.90625 C-127.18123047 878.49921875 -127.73746094 879.0921875 -128.31054688 879.703125 C-128.86806641 880.29609375 -129.42558594 880.8890625 -130 881.5 C-133.87249004 885.63286023 -137.72658381 889.77602665 -141.5 894 C-145.82829341 898.84318334 -150.26223702 903.58332374 -154.70043945 908.32543945 C-160.17595701 914.1788334 -165.59408904 920.08228682 -171 926 C-179.14830454 934.90518624 -187.328744 943.7803042 -195.52050781 952.64550781 C-200.85697495 958.42124684 -206.18935718 964.20049542 -211.5 970 C-217.81935299 976.90106977 -224.1700948 983.7730313 -230.52050781 990.64550781 C-235.85697495 996.42124684 -241.18935718 1002.20049542 -246.5 1008 C-252.81935299 1014.90106977 -259.1700948 1021.7730313 -265.52050781 1028.64550781 C-270.85697495 1034.42124684 -276.18935718 1040.20049542 -281.5 1046 C-287.81935299 1052.90106977 -294.1700948 1059.7730313 -300.52050781 1066.64550781 C-306.30902242 1072.91050465 -312.09033945 1079.18177156 -317.84912109 1085.47412109 C-320.7683496 1088.66207398 -323.69923199 1091.83894928 -326.63574219 1095.01098633 C-331.82388262 1100.61623496 -336.958581 1106.26167896 -342 1112 C-340.88231088 1115.35306735 -340.26766297 1115.808785 -337.4921875 1117.78515625 C-336.3952356 1118.5730957 -336.3952356 1118.5730957 -335.27612305 1119.37695312 C-334.48375244 1119.93318359 -333.69138184 1120.48941406 -332.875 1121.0625 C-332.05749268 1121.64322266 -331.23998535 1122.22394531 -330.39770508 1122.82226562 C-247.96836528 1181.10385619 -153.16415185 1216.73077083 92.46630859 1218.73590088 C168.65809935 1205.61797464 243.47754598 1176.18582307 307 1132 C307.6796582 1131.52997559 308.35931641 1131.05995117 309.05957031 1130.57568359 C322.49470815 1121.26674965 335.43796151 1111.46545348 348 1101 C348.51030762 1100.57605957 349.02061523 1100.15211914 349.54638672 1099.71533203 C357.03983506 1093.47952537 364.32487364 1087.05968683 371.46435547 1080.42236328 C373.05414072 1078.94985313 374.65288063 1077.48761987 376.25390625 1076.02734375 C385.24952056 1067.80858719 394.14960378 1059.49857614 402.06640625 1050.21484375 C404.0987464 1047.88689048 406.19342839 1045.62884238 408.30297852 1043.37109375 C414.14291949 1037.11667024 419.66113667 1030.69149481 425 1024 C425.92091185 1022.87030792 426.84284111 1021.74144468 427.765625 1020.61328125 C451.84236234 991.0525757 472.23918165 958.68972519 490 925 C490.48436523 924.08331543 490.96873047 923.16663086 491.46777344 922.22216797 C528.56352806 851.46269747 549.15498173 772.16444697 553.25 692.5 C553.29129028 691.70132507 553.33258057 690.90265015 553.37512207 690.07977295 C554.24516502 672.68836121 554.17812049 655.38695613 553.25 638 C553.20676605 637.18740723 553.1635321 636.37481445 553.11898804 635.53759766 C548.3568078 548.50835828 522.77939212 464.59720676 424.66064453 310.97802734 C423.01018252 309.01212861 421.37648505 307.03334104 419.74609375 305.05078125 C418.747759 303.84605313 417.74908034 302.64160988 416.75 301.4375 C416.2960083 300.88271973 415.8420166 300.32793945 415.37426758 299.75634766 C414.29356744 298.46601547 413.15221453 297.22689511 412 296 C409.71877282 295.77671712 409.71877282 295.77671712 407.64453125 298.125 Z M-371 549 C-371 576.72 -371 604.44 -371 633 C-355.9754119 633.29054071 -355.9754119 633.29054071 -343.6875 626.875 C-337.34377042 616.06716442 -338.81942891 600.52845281 -338.8125 588.4375 C-338.80025391 587.30892578 -338.78800781 586.18035156 -338.77539062 585.01757812 C-338.75827005 575.09335321 -338.75383244 563.30306262 -345 555 C-348.63974101 551.52512531 -351.34875847 550.39201687 -356.3125 549.75 C-357.91544922 549.52570312 -357.91544922 549.52570312 -359.55078125 549.296875 C-363.35440747 548.96949607 -367.18231098 549 -371 549 Z M96 636 C94.69961202 637.36834175 93.43643559 638.77203967 92.1875 640.1875 C88.0178341 644.87505434 83.78710851 649.49876754 79.5144043 654.0925293 C78.56515294 655.11628916 77.6317031 656.15493145 76.71476746 657.20773315 C75 659 75 659 72.97695923 660.47288513 C68.75294411 664.00313784 66.84728271 667.34835057 66.29011536 672.7893219 C65.94887881 679.01545423 66.07382441 685.23741615 66.18359375 691.46875 C66.19600017 693.79169181 66.2049811 696.11465419 66.21070862 698.43762207 C66.23552272 704.54731948 66.30915576 710.65550635 66.39239502 716.76464844 C66.46686035 722.931466 66.49094342 729.0984641 66.52148438 735.265625 C64.14464662 770.14716566 64.14464662 770.14716566 71.75 802.9375 C74.92931498 805.85187207 77.64621946 806.96300541 81.98828125 807.03125 C86.72580166 806.67437464 89.77661091 805.68387325 93 802 C97.84576335 791.88269494 97.14334775 780.33013125 97.11352539 769.39233398 C97.11324286 767.93289695 97.11340254 766.47345978 97.1139679 765.01402283 C97.1142533 761.07665219 97.10839824 757.13931239 97.10139394 753.20194888 C97.09511749 749.07799866 97.09455322 744.95404764 97.09336853 740.83009338 C97.09026782 733.03179034 97.0820715 725.23350141 97.07201904 717.43520457 C97.06081866 708.55245822 97.05533758 699.66971118 97.05032361 690.78695953 C97.03988778 672.5246317 97.02231286 654.26231699 97 636 C96.67 636 96.34 636 96 636 Z M-371 693 C-371 727.65 -371 762.3 -371 798 C-356.06631628 797.46315592 -356.06631628 797.46315592 -343.4375 790.6875 C-338.4556278 781.37356501 -338.8420343 770.69882521 -338.83203125 760.42578125 C-338.82870285 759.22495407 -338.82537445 758.02412689 -338.82194519 756.78691101 C-338.816898 754.2528827 -338.81453618 751.71884779 -338.81469727 749.18481445 C-338.81251702 745.34249694 -338.79435444 741.5004697 -338.77539062 737.65820312 C-338.77245486 735.1848968 -338.77047129 732.71158913 -338.76953125 730.23828125 C-338.76234573 729.10554276 -338.75516022 727.97280426 -338.74775696 726.80574036 C-338.576667 711.66081345 -338.576667 711.66081345 -344 698 C-351.95551861 692.5669629 -361.74301558 693 -371 693 Z " fill="#494949" transform="translate(836,307)"/>
<path d="M0 0 C173.20212766 0 173.20212766 0 199 25 C199.62648438 25.54140625 200.25296875 26.0828125 200.8984375 26.640625 C217.34405624 41.37470876 221.82239267 66.93568753 223.1875 87.8762207 C225.92712633 139.51736175 225.92712633 139.51736175 214 155 C213.49339844 155.66902344 212.98679687 156.33804688 212.46484375 157.02734375 C203.71617675 167.04504816 189.5110673 171.74369481 177 175 C178.0725 175.391875 179.145 175.78375 180.25 176.1875 C181.83494195 176.78743401 183.41808327 177.39213385 185 178 C185.9178125 178.35191406 186.835625 178.70382812 187.78125 179.06640625 C203.68570637 185.40726188 216.33923277 193.10029938 223.5 209.22265625 C231.48838708 228.61657337 231.33912359 250.61961643 231.20581055 271.26928711 C231.18743919 274.19719153 231.18530298 277.12477788 231.18554688 280.05273438 C231.16303918 292.06310283 230.76889472 304.01492583 230 316 C229.95875 316.69033325 229.9175 317.3806665 229.875 318.09191895 C229.24175098 328.38814825 226.39326196 332.98284875 219 340 C217.01069679 342.09685163 215.07054647 344.23759928 213.125 346.375 C212.09993119 347.48527399 211.07388688 348.59464812 210.046875 349.703125 C207.14876562 352.83691291 204.25980533 355.97896608 201.375 359.125 C200.48683594 360.09179688 199.59867188 361.05859375 198.68359375 362.0546875 C196.82834887 364.09086602 194.98721506 366.13430486 193.16015625 368.1953125 C192.7027002 368.70819824 192.24524414 369.22108398 191.77392578 369.74951172 C190.51058609 371.16794171 189.25315408 372.59162706 187.99609375 374.015625 C186 376 186 376 184 376 C183.67 376.66 183.34 377.32 183 378 C181.16845703 378.39477539 181.16845703 378.39477539 178.7578125 378.59765625 C177.40236328 378.71657227 177.40236328 378.71657227 176.01953125 378.83789062 C175.06433594 378.91201172 174.10914063 378.98613281 173.125 379.0625 C171.79662109 379.17948242 171.79662109 379.17948242 170.44140625 379.29882812 C113.82485251 384.06280796 56.81663191 381 0 381 C0 255.27 0 129.54 0 0 Z M99 66 C99 93.72 99 121.44 99 150 C114.0245881 150.29054071 114.0245881 150.29054071 126.3125 143.875 C132.65622958 133.06716442 131.18057109 117.52845281 131.1875 105.4375 C131.19974609 104.30892578 131.21199219 103.18035156 131.22460938 102.01757812 C131.24172995 92.09335321 131.24616756 80.30306262 125 72 C121.36025899 68.52512531 118.65124153 67.39201687 113.6875 66.75 C112.08455078 66.52570313 112.08455078 66.52570313 110.44921875 66.296875 C106.64559253 65.96949607 102.81768902 66 99 66 Z M99 210 C99 244.65 99 279.3 99 315 C113.93368372 314.46315592 113.93368372 314.46315592 126.5625 307.6875 C131.5443722 298.37356501 131.1579657 287.69882521 131.16796875 277.42578125 C131.17129715 276.22495407 131.17462555 275.02412689 131.17805481 273.78691101 C131.183102 271.2528827 131.18546382 268.71884779 131.18530273 266.18481445 C131.18748298 262.34249694 131.20564556 258.5004697 131.22460938 254.65820312 C131.22754514 252.1848968 131.22952871 249.71158913 131.23046875 247.23828125 C131.23765427 246.10554276 131.24483978 244.97280426 131.25224304 243.80574036 C131.423333 228.66081345 131.423333 228.66081345 126 215 C118.04448139 209.5669629 108.25698442 210 99 210 Z " fill="#000000" transform="translate(366,790)"/>
<path d="M0 0 C23.12404832 21.22557785 28.19143609 46.19138666 30.6652832 76.52856445 C30.6652832 91.04856445 30.6652832 105.56856445 30.6652832 120.52856445 C-2.0047168 120.52856445 -34.6747168 120.52856445 -68.3347168 120.52856445 C-68.6647168 104.68856445 -68.9947168 88.84856445 -69.3347168 72.52856445 C-68.90883078 54.90695566 -68.90883078 54.90695566 -76.3347168 39.52856445 C-80.53538016 37.42823277 -85.77113667 37.99238949 -90.3347168 38.52856445 C-94.66043665 41.47005395 -96.15312803 44.50681218 -97.3347168 49.52856445 C-98.20559712 55.37294691 -98.48122907 61.03512266 -98.47515869 66.93826294 C-98.47812981 67.8540197 -98.48110094 68.76977646 -98.48416209 69.71328342 C-98.49279587 72.76516386 -98.49435281 75.81700483 -98.49584961 78.86889648 C-98.50048156 81.06408267 -98.50550672 83.25926806 -98.51089478 85.45445251 C-98.52398457 91.40720799 -98.53045706 97.35995221 -98.53490543 103.31271982 C-98.53784172 107.03627961 -98.54194757 110.75983637 -98.54640961 114.48339462 C-98.5600756 126.14669326 -98.56976234 137.80998548 -98.5736115 149.47329152 C-98.57405495 150.81333041 -98.57450151 152.15336931 -98.57495117 153.4934082 C-98.5751726 154.15810017 -98.57539403 154.82279213 -98.57562217 155.50762628 C-98.57956663 166.26769093 -98.59701304 177.02768772 -98.62031069 187.78772618 C-98.64408885 198.85991191 -98.65623207 209.93206196 -98.65765262 221.0042733 C-98.65869803 227.21081645 -98.66454978 233.41726378 -98.68247223 239.62378311 C-98.69901603 245.46626582 -98.70107784 251.30858131 -98.69233322 257.15107918 C-98.69156622 259.28668607 -98.69586076 261.42230219 -98.70579147 263.55788612 C-99.70681319 282.20713829 -99.70681319 282.20713829 -93.36345291 298.81326485 C-89.59640398 301.9983107 -86.69019928 302.72757052 -81.8347168 302.34106445 C-77.97934823 301.75284902 -75.24794482 301.2753223 -72.3347168 298.52856445 C-68.82980708 293.02610129 -67.92510825 286.8275582 -67.26049805 280.4465332 C-67.17607452 279.63605026 -67.091651 278.82556732 -67.00466919 277.99052429 C-65.84347825 265.64461151 -65.86436039 253.23107697 -65.7097168 240.84106445 C-65.671434 238.27790165 -65.63237676 235.71475029 -65.5925293 233.15161133 C-65.49768031 226.94402458 -65.41325226 220.73637814 -65.3347168 214.52856445 C-71.9347168 214.52856445 -78.5347168 214.52856445 -85.3347168 214.52856445 C-85.3347168 195.05856445 -85.3347168 175.58856445 -85.3347168 155.52856445 C-47.0547168 155.52856445 -8.7747168 155.52856445 30.6652832 155.52856445 C30.6652832 223.17856445 30.6652832 290.82856445 30.6652832 360.52856445 C9.8752832 360.52856445 -10.9147168 360.52856445 -32.3347168 360.52856445 C-34.9747168 352.60856445 -37.6147168 344.68856445 -40.3347168 336.52856445 C-40.6647168 336.19856445 -40.9947168 335.86856445 -41.3347168 335.52856445 C-41.72401367 336.13442383 -42.11331055 336.7402832 -42.5144043 337.36450195 C-53.46722701 353.7684991 -67.07916467 363.43704857 -86.3347168 367.52856445 C-111.74335559 371.89521633 -136.97467096 365.56370249 -158.3347168 351.52856445 C-162.16887007 348.69929104 -165.78883235 345.71002684 -169.3347168 342.52856445 C-169.99084961 341.94333008 -170.64698242 341.3580957 -171.32299805 340.75512695 C-194.00738026 319.32819387 -198.16257836 288.04536827 -199.3347168 258.52856445 C-199.48859684 252.8050953 -199.48213845 247.08083044 -199.47998047 241.35571289 C-199.48298438 239.72687709 -199.48638966 238.09804198 -199.49015808 236.46920776 C-199.49888116 232.10062619 -199.5013313 227.73206429 -199.50197387 223.36347485 C-199.50269154 220.61497743 -199.50483928 217.8664848 -199.50747108 215.11798859 C-199.51668879 205.47424511 -199.52081084 195.83051532 -199.52001953 186.18676758 C-199.51942104 177.28809216 -199.52993707 168.3894778 -199.54576319 159.49081779 C-199.55897539 151.77879426 -199.56419772 144.06679035 -199.56356412 136.35475564 C-199.56331293 131.78101458 -199.56594799 127.20732781 -199.57674217 122.63359833 C-199.77929424 30.33729723 -199.77929424 30.33729723 -171.3347168 1.52856445 C-128.88635397 -40.99466322 -44.13535885 -38.82734803 0 0 Z " fill="#000000" transform="translate(1265.334716796875,810.471435546875)"/>
<path d="M0 0 C15.6192896 23.4289344 9.1627026 66.88315805 9.16725707 93.70627952 C9.16797934 96.10945909 9.17013524 98.51263332 9.17275429 100.91581154 C9.18194641 109.37462336 9.18609733 117.83341968 9.18530273 126.29223633 C9.18470499 134.05482699 9.19521314 141.81734749 9.2110464 149.57992047 C9.22432767 156.34356264 9.22947815 163.10718248 9.22884732 169.87083751 C9.22859808 173.86624027 9.23111615 177.86158061 9.24202538 181.85696983 C9.28493429 198.83922864 9.01873561 215.77434921 8.1730957 232.73754883 C8.12117492 233.87285036 8.12117492 233.87285036 8.06820524 235.03108728 C6.76198294 262.81538736 -0.35915398 285.73737673 -20 306 C-20.80630859 306.91652344 -20.80630859 306.91652344 -21.62890625 307.8515625 C-39.24852019 327.19339434 -69.04104451 334.25048273 -94 336 C-127.75439206 337.35981639 -162.06090121 332.03326524 -188.4765625 309.3359375 C-207.20394925 292.00005937 -217.62943252 268.3958092 -219 243 C-218.61849087 236.83119139 -218.61849087 236.83119139 -216.3984375 233.84765625 C-215.73070312 233.25855469 -215.06296875 232.66945313 -214.375 232.0625 C-210.91554432 228.95172463 -207.89352338 225.634586 -204.85595703 222.12084961 C-201.90611411 218.74998859 -198.82688567 215.50455361 -195.75 212.25 C-189.44291919 205.5504786 -183.20187694 198.79695958 -177 192 C-175.18809792 190.02028065 -173.37578485 188.04095151 -171.5625 186.0625 C-171.11028076 185.56903076 -170.65806152 185.07556152 -170.19213867 184.56713867 C-164.30528551 178.14691641 -158.39101021 171.75199243 -152.47949219 165.35449219 C-137.96258296 149.66629266 -137.96258296 149.66629266 -123.6796875 133.765625 C-123.12539063 133.18296875 -122.57109375 132.6003125 -122 132 C-121.67 132 -121.34 132 -121 132 C-120.9845388 133.93533852 -120.9845388 133.93533852 -120.96876526 135.90977478 C-120.87054685 148.13363803 -120.76777228 160.35745583 -120.66066074 172.58124447 C-120.60575122 178.86396131 -120.55238654 185.14668298 -120.50268555 191.42944336 C-120.45456517 197.50493001 -120.40221291 203.58036742 -120.34705925 209.65579414 C-120.32684925 211.96112385 -120.30810435 214.26646693 -120.29092598 216.57182121 C-121.87518543 242.89106556 -121.87518543 242.89106556 -114.875 267 C-111.21379923 269.54692227 -108.43548595 270.28616038 -104 270 C-100.11886194 268.85474615 -97.78856322 268.07642013 -95.37418842 264.78070259 C-90.72069614 255.36425151 -91.7230545 243.12571935 -91.79223633 232.85986328 C-91.79440447 231.40281788 -91.79558504 229.94577074 -91.79586792 228.48872375 C-91.79790329 225.38248336 -91.80551788 222.27632719 -91.8173008 219.1701088 C-91.83462734 214.25202508 -91.8311665 209.33408589 -91.82365417 204.41598511 C-91.80457128 190.44195506 -91.79790238 176.46811973 -91.84545898 162.49414062 C-91.8716363 154.7523672 -91.87291457 147.01101062 -91.84631175 139.26923358 C-91.83335287 135.18320108 -91.83325892 131.09807456 -91.8641758 127.01211929 C-91.89316268 123.17513719 -91.88961862 119.33954518 -91.86156845 115.5025692 C-91.85708733 114.09975329 -91.86445569 112.69683878 -91.88489723 111.29416466 C-92.04718476 99.40833612 -92.04718476 99.40833612 -87.6269989 94.30026245 C-86.44005215 93.17641638 -85.23214349 92.07410196 -84 91 C-83.02525422 89.95554335 -82.06057753 88.9014464 -81.11328125 87.83203125 C-80.18074696 86.82453916 -79.24713152 85.81804683 -78.3125 84.8125 C-77.2682078 83.68491562 -76.2239376 82.55731086 -75.1796875 81.4296875 C-74.65342773 80.86217773 -74.12716797 80.29466797 -73.58496094 79.70996094 C-71.03216568 76.95583617 -68.48466802 74.19682843 -65.9375 71.4375 C-65.44032471 70.89907471 -64.94314941 70.36064941 -64.4309082 69.8059082 C-61.11293276 66.21093889 -57.80383569 62.60796439 -54.5 59 C-48.18064701 52.09893023 -41.8299052 45.2269687 -35.47949219 38.35449219 C-30.14302485 32.57875294 -24.81068079 26.79947004 -19.5 21 C-15.48638101 16.61831988 -11.46587584 12.24311838 -7.4375 7.875 C-6.92445313 7.318125 -6.41140625 6.76125 -5.8828125 6.1875 C-3.95030916 4.09352064 -2.0150911 2.0150911 0 0 Z " fill="#000000" transform="translate(1024,843)"/>
<path d="M0 0 C33 0 66 0 100 0 C100.36272731 44.69606495 100.36272731 44.69606495 100.43945312 63.44726562 C100.49282585 76.38712723 100.55551853 89.32646083 100.67895508 102.26586914 C100.76881698 111.69028177 100.82676094 121.11426546 100.84679645 130.53909463 C100.85850387 135.52717119 100.88590698 140.51402095 100.95157051 145.50170326 C101.01295557 150.20277459 101.03144609 154.90212162 101.01796913 159.60355568 C101.02043214 161.32285455 101.03816282 163.04221491 101.07284927 164.76116562 C101.26179426 174.61328853 100.55558887 181.27633839 93.38449001 188.76079082 C92.59760831 189.49972985 91.8107266 190.23866888 91 191 C89.45791532 192.56208745 87.91618957 194.12452941 86.375 195.6875 C85.62347656 196.42097656 84.87195313 197.15445313 84.09765625 197.91015625 C81.63838813 200.36026509 79.39588124 202.94506849 77.13671875 205.578125 C74.19979251 208.90699935 71.16153759 212.13709413 68.125 215.375 C63.44922377 220.36347373 58.82288992 225.38698979 54.265625 230.484375 C51.0699394 234.03268798 47.82624735 237.53577726 44.58374023 241.04125977 C41.19297728 244.70710918 37.81040923 248.38021607 34.4375 252.0625 C33.98777832 252.55347168 33.53805664 253.04444336 33.07470703 253.55029297 C32.16937398 254.53884515 31.26410037 255.52745177 30.35888672 256.51611328 C28.53197285 258.51107959 26.70404758 260.50511749 24.87597656 262.49902344 C23.96238833 263.4956062 23.04897539 264.4923497 22.13574219 265.48925781 C19.78538336 268.0546602 17.43216954 270.61735374 15.07421875 273.17578125 C14.11179175 274.22118166 13.14954902 275.26675174 12.1875 276.3125 C11.72811035 276.81168945 11.2687207 277.31087891 10.79541016 277.82519531 C8.26361803 280.58698242 5.78986578 283.3855888 3.375 286.25 C2.59125 287.1575 1.8075 288.065 1 289 C0.67 289 0.34 289 0 289 C0 193.63 0 98.26 0 0 Z " fill="#000000" transform="translate(631,790)"/>
<path d="M0 0 C-3.61638529 5.15060935 -7.51319161 9.6393695 -12.01953125 14.02734375 C-13.81328335 15.81401991 -15.47783557 17.64149966 -17.125 19.5625 C-20.6001384 23.60354396 -24.22997941 27.48797237 -27.875 31.375 C-32.55075606 36.36349315 -37.17710955 41.3869892 -41.734375 46.484375 C-44.9300606 50.03268798 -48.17375265 53.53577726 -51.41625977 57.04125977 C-54.80702272 60.70710918 -58.18959077 64.38021607 -61.5625 68.0625 C-62.01222168 68.55347168 -62.46194336 69.04444336 -62.92529297 69.55029297 C-63.83062602 70.53884515 -64.73589963 71.52745177 -65.64111328 72.51611328 C-67.46794949 74.51099479 -69.29580063 76.50494469 -71.1237793 78.4987793 C-72.03815184 79.49620289 -72.95237813 80.49376058 -73.86645508 81.49145508 C-76.20505687 84.04375741 -78.54590701 86.59393937 -80.890625 89.140625 C-81.84388465 90.1769595 -82.79701157 91.21341609 -83.75 92.25 C-84.43521729 92.99491699 -84.43521729 92.99491699 -85.13427734 93.75488281 C-88.41511375 97.33289211 -91.61481718 100.97246424 -94.7578125 104.671875 C-95.16773438 105.11015625 -95.57765625 105.5484375 -96 106 C-96.33 106 -96.66 106 -97 106 C-97.73564969 79.84356666 -92.42671958 55.22744237 -75 35 C-74.443125 34.2884375 -73.88625 33.576875 -73.3125 32.84375 C-56.78333182 12.60976826 -26.01488527 -0.51375896 0 0 Z " fill="#000000" transform="translate(902,783)"/>
<path d="M0 0 C0.33 0 0.66 0 1 0 C1 24.42 1 48.84 1 74 C-21.44 74 -43.88 74 -67 74 C-65.30427347 70.60854693 -64.41745372 69.2059289 -61.8125 66.75 C-59.29349815 64.36668209 -56.98650734 61.86639571 -54.71484375 59.25 C-51.15805333 55.15352931 -47.47659335 51.19174898 -43.75 47.25 C-38.34889148 41.5131955 -32.98969752 35.7435355 -27.67578125 29.92578125 C-24.79381818 26.77455448 -21.89859023 23.63592072 -19 20.5 C-14.04287447 15.13657919 -9.10667028 9.75440009 -4.1796875 4.36328125 C-2.81419927 2.88277878 -1.42415688 1.42415688 0 0 Z " fill="#000000" transform="translate(790,1097)"/>
</svg>
